<?xml version="1.0" encoding="UTF-8"?>
<svg id="Layer_2" data-name="Layer 2" xmlns="http://www.w3.org/2000/svg" viewBox="0 0 322.52 82.9">
  <defs>
    <style>
      .cls-1 {
        fill: #2c2c2c;
      }
    </style>
  </defs>
  <g id="Layer_1-2" data-name="Layer 1">
    <g>
      <path class="cls-1" d="M0,82.9V0h67.36c2.84,0,5.43.69,7.77,2.07,2.34,1.38,4.22,3.26,5.64,5.64,1.42,2.38,2.13,4.99,2.13,7.83v51.81c0,2.84-.71,5.45-2.13,7.83-1.42,2.38-3.3,4.26-5.64,5.64-2.34,1.38-4.93,2.07-7.77,2.07H0ZM15.89,68.97h51.01c.54,0,1.02-.21,1.44-.63s.63-.9.63-1.44V16c0-.54-.21-1.02-.63-1.44-.42-.42-.9-.63-1.44-.63H15.89c-.62,0-1.13.21-1.55.63-.42.42-.63.9-.63,1.44v50.89c0,.54.21,1.02.63,1.44.42.42.94.63,1.55.63Z"/>
      <path class="cls-1" d="M103,80.77c-2.34-1.42-4.22-3.3-5.64-5.64-1.42-2.34-2.13-4.89-2.13-7.66V31.55c0-2.76.71-5.31,2.13-7.66,1.42-2.34,3.3-4.22,5.64-5.64,2.34-1.42,4.89-2.13,7.66-2.13h36.96c2.84,0,5.43.69,7.77,2.07,2.34,1.38,4.2,3.24,5.58,5.58,1.38,2.34,2.07,4.93,2.07,7.77v35.93c0,2.76-.69,5.32-2.07,7.66-1.38,2.34-3.24,4.22-5.58,5.64-2.34,1.42-4.93,2.13-7.77,2.13h-36.96c-2.76,0-5.32-.71-7.66-2.13ZM111.11,69.2h36.04c.61,0,1.13-.21,1.55-.63s.63-.94.63-1.55v-35c0-.61-.21-1.13-.63-1.55-.42-.42-.94-.63-1.55-.63h-36.04c-.62,0-1.13.21-1.55.63-.42.42-.63.94-.63,1.55v35c0,.62.21,1.13.63,1.55.42.42.94.63,1.55.63Z"/>
      <path class="cls-1" d="M182.67,80.77c-2.34-1.42-4.22-3.3-5.64-5.64-1.42-2.34-2.13-4.89-2.13-7.66V31.55c0-2.76.71-5.31,2.13-7.66,1.42-2.34,3.3-4.22,5.64-5.64,2.34-1.42,4.89-2.13,7.66-2.13h52.28v13.7h-51.81c-.62,0-1.13.21-1.55.63-.42.42-.63.94-.63,1.55v35c0,.62.21,1.13.63,1.55.42.42.94.63,1.55.63h51.93v13.7h-52.39c-2.76,0-5.32-.71-7.66-2.13Z"/>
      <path class="cls-1" d="M262.35,80.77c-2.34-1.42-4.22-3.3-5.64-5.64-1.42-2.34-2.13-4.89-2.13-7.66v-2.19h13.7v1.73c0,.62.21,1.13.63,1.55.42.42.94.63,1.55.63h36.04c.61,0,1.13-.21,1.55-.63s.63-.94.63-1.55v-8.52c0-.54-.21-1.02-.63-1.44-.42-.42-.94-.63-1.55-.63h-36.5c-2.76,0-5.32-.71-7.66-2.13-2.34-1.42-4.22-3.3-5.64-5.64-1.42-2.34-2.13-4.89-2.13-7.66v-9.44c0-2.76.71-5.31,2.13-7.66,1.42-2.34,3.3-4.22,5.64-5.64,2.34-1.42,4.89-2.13,7.66-2.13h36.96c2.84,0,5.43.71,7.77,2.13,2.34,1.42,4.22,3.3,5.64,5.64,1.42,2.34,2.13,4.89,2.13,7.66v2.19h-13.82v-1.73c0-.61-.21-1.13-.63-1.55-.42-.42-.94-.63-1.55-.63h-36.04c-.62,0-1.13.21-1.55.63-.42.42-.63.94-.63,1.55v8.52c0,.54.21,1.02.63,1.44.42.42.94.63,1.55.63h36.5c2.84,0,5.43.71,7.77,2.13,2.34,1.42,4.22,3.3,5.64,5.64,1.42,2.34,2.13,4.89,2.13,7.66v9.44c0,2.76-.71,5.32-2.13,7.66-1.42,2.34-3.3,4.22-5.64,5.64-2.34,1.42-4.93,2.13-7.77,2.13h-36.96c-2.76,0-5.32-.71-7.66-2.13Z"/>
    </g>
  </g>
</svg>